# xmcd CD database file
#
# Track frame offsets:
#	150
#	32900
#	52916
#	79142
#	108739
#	138036
#	154868
#	176677
#	197054
#
# Disc length: 2773 seconds
#
# Revision: 1
# Processed by: cddbd v1.5.2PL0 Copyright (c) Steve Scherf et al.
# Submitted via: CDex 1.70beta2
#
DISCID=730ad309
DTITLE=南博 - The Girl Next Door
DYEAR=2010
DGENRE=Jazz
TTITLE0=The Girl Next Door
TTITLE1=Bye-Ya
TTITLE2=But Not For Me
TTITLE3=I Love You Porgy
TTITLE4=Nefertiti
TTITLE5=Doxy
TTITLE6=Blame It On My Youth
TTITLE7=Goodbye Pork Pie Hat
TTITLE8=Epilogue
EXTD=YEAR: 2010
EXTT0=
EXTT1=
EXTT2=
EXTT3=
EXTT4=
EXTT5=
EXTT6=
EXTT7=
EXTT8=
PLAYORDER=
